# xmcd
#
# Track frame offsets:
# 150
# 19261
# 41203
# 58072
# 75393
# 93732
# 113329
# 127557
# 146653
# 166532
# 186532
# 208260
# 231589
# 251211
# 270604
# 290173
# 305378
# 321384
#
# Disc length: 4571 seconds
#
#
# Revision: 0
# Processed by: cddbd v1.5.1PL0 Copyright (c) Steve Scherf et al.
# Submitted via: FreeRIP 2.942 
#
DISCID=0d11d912
DTITLE=Bachatazo Explosivo 2005 - Bachatazo Explosivo 2005
DYEAR=2005
DGENRE=Bachata
TTITLE0=Monchy y Alexandra - hasta el fin
TTITLE1=Aventura - boda
TTITLE2=Frank Reyes - se dice
TTITLE3=Joe Veras - tonto corazon
TTITLE4=Yoskar Sarante - pensando en ella
TTITLE5=Antony Santos - vuelve amor
TTITLE6=Elvis Martinez - juancito nadie
TTITLE7=Alex Bueno y Frank Reyes - una espina saca otra
TTITLE8=Los Toros Band - perdoname la vida
TTITLE9=Monchy y Alexandra - perdidos
TTITLE10=Dominic Marte - ven tu
TTITLE11=Aventura y Antony Santos - mujer infiel
TTITLE12=El Chaval - ya no quiero verte
TTITLE13=Luis Vargas - otra vez
TTITLE14=Andy Andy - como sera manana
TTITLE15=Jean Luis Fortuna - un poco de amor
TTITLE16=Elvis Diaz - hoy me toca reir
TTITLE17=Manny Geovanny - echame a mi la culpa
EXTD=
EXTT0=
EXTT1=
EXTT2=
EXTT3=
EXTT4=
EXTT5=
EXTT6=
EXTT7=
EXTT8=
EXTT9=
EXTT10=
EXTT11=
EXTT12=
EXTT13=
EXTT14=
EXTT15=
EXTT16=
EXTT17=
PLAYORDER=
